<svg width="19" height="19" viewBox="0 0 19 19" fill="none" xmlns="http://www.w3.org/2000/svg">
<path d="M1.48279 1L17.5168 18M7.57955 7.52955C7.11399 8.03951 6.82748 8.73424 6.82748 9.5C6.82748 11.0648 8.02396 12.3333 9.49981 12.3333C10.2325 12.3333 10.8963 12.0207 11.379 11.5145M4.60053 4.44453C2.90867 5.6281 1.62 7.40705 1 9.5C2.13508 13.3317 5.51141 16.1111 9.49999 16.1111C11.2717 16.1111 12.9225 15.5628 14.3098 14.6174M8.60903 2.93553C8.90209 2.90469 9.19935 2.88889 9.49999 2.88889C13.4886 2.88889 16.865 5.6683 18 9.5C17.75 10.3443 17.391 11.1375 16.9407 11.8611" stroke="#949494" stroke-linecap="round" stroke-linejoin="round"/>
</svg>
